<svg id="Layer_1" data-name="Layer 1" xmlns="http://www.w3.org/2000/svg" viewBox="0 0 500 500"><defs><style>.cls-1{fill:#fff;}.cls-2{fill:#06fff8;}</style></defs><path class="cls-1" d="M381,427.68l28.91-23.53-80-98.34c47.35-50.39,50.16-128.51,6.35-182.34a138.65,138.65,0,0,0-195.06-20c-59.3,48.26-68.28,135.77-20,195.07a138.17,138.17,0,0,0,135.72,48.26,10.37,10.37,0,1,0-.85-5.27,10.7,10.7,0,0,0,0,2,134.85,134.85,0,0,1-132.28-47.13C76.63,238.54,85.39,153.14,143.27,106a135.33,135.33,0,0,1,190.38,19.54c43.05,52.9,40,129.86-7.19,179l-1,1.06,79.78,98L381.49,423,279.86,298.12l-1.23.7a101,101,0,1,1,25.9-21.08L307,280a104.34,104.34,0,1,0-28,22.46Z"/><path class="cls-2" d="M216,256.24a48.36,48.36,0,1,0-28.79-31,27.61,27.61,0,0,0-18.58,8.53,68.8,68.8,0,1,1,37.42,40.42A27.5,27.5,0,0,0,216,256.24Z"/><circle class="cls-1" cx="188.63" cy="252.82" r="14.23"/></svg>