<svg id="Layer_1" data-name="Layer 1" xmlns="http://www.w3.org/2000/svg" viewBox="0 0 1249.06 643.88"><defs><style>.cls-1{font-size:238.62px;letter-spacing:-0.01em;}.cls-1,.cls-10,.cls-11,.cls-5{fill:#fff;}.cls-1,.cls-10,.cls-5{font-family:Montserrat-SemiBold, Montserrat;font-weight:600;}.cls-2{letter-spacing:0em;}.cls-3{letter-spacing:0em;}.cls-4{fill:#06fff8;}.cls-10,.cls-5{font-size:54.92px;}.cls-5{letter-spacing:0.11em;}.cls-6{letter-spacing:0.14em;}.cls-7{letter-spacing:0.1em;}.cls-8{letter-spacing:0.14em;}.cls-9{letter-spacing:0.13em;}.cls-10{letter-spacing:0.1em;}</style></defs><text class="cls-1" transform="translate(50.86 250.83)">P<tspan class="cls-2" x="170.85" y="0">L</tspan><tspan class="cls-3" x="314.02" y="0">AN MY</tspan></text><path class="cls-4" d="M67.65,504.83V298.68H177.79q42.71,0,63,15.17t20.32,38.72a46.88,46.88,0,0,1-8.69,27.84q-8.7,12.21-25.18,19.29t-40.64,7.06l5.89-15.9q24.14,0,41.67,6.77t27.09,19.59Q270.85,430,270.85,448q0,26.81-22.23,41.82t-64.94,15ZM136,456.24h41.82q11.49,0,17.23-4.12T200.76,440q0-7.95-5.74-12.07t-17.23-4.13H131.26V377.9h37.11q11.77,0,17.23-4T191,362.59q0-7.65-5.44-11.49t-17.23-3.83H136Z"/><path class="cls-4" d="M403.67,509.54a132.79,132.79,0,0,1-46.68-8,109.43,109.43,0,0,1-37-22.53,103.52,103.52,0,0,1-24.29-34.31,105.33,105.33,0,0,1-8.69-43q0-23.56,8.69-43.15A104,104,0,0,1,320,324.45a109.43,109.43,0,0,1,37-22.53A132,132,0,0,1,403.38,294q25.32,0,46.53,7.95a109.74,109.74,0,0,1,36.81,22.53A104.22,104.22,0,0,1,511,358.61a111.2,111.2,0,0,1,0,86.14,103.69,103.69,0,0,1-24.3,34.31,109.74,109.74,0,0,1-36.81,22.53A130.72,130.72,0,0,1,403.67,509.54Zm-.29-56.25a46.12,46.12,0,0,0,18.11-3.53,43.57,43.57,0,0,0,14.72-10.16,46.44,46.44,0,0,0,9.87-16.2,68.13,68.13,0,0,0,0-43.29,46.44,46.44,0,0,0-9.87-16.2,43.72,43.72,0,0,0-14.72-10.16,48.25,48.25,0,0,0-36.23,0,43.72,43.72,0,0,0-14.72,10.16,46.44,46.44,0,0,0-9.87,16.2,68.13,68.13,0,0,0,0,43.29,46.44,46.44,0,0,0,9.87,16.2,43.57,43.57,0,0,0,14.72,10.16A46.17,46.17,0,0,0,403.38,453.29Z"/><path class="cls-4" d="M836.58,504.83V352.57H776.21V298.68H966.45v53.89H906.08V504.83Z"/><path class="cls-4" d="M1053.92,504.83H984.41V298.68h69.51Zm68.91-76H1049.2V371.72h73.63Zm-4.71-130.17h69.5V504.83h-69.5Z"/><text class="cls-5" transform="translate(67.44 581.32)">Y<tspan class="cls-6" x="42.45" y="0">OUR </tspan><tspan class="cls-7" x="218.52" y="0">P</tspan><tspan class="cls-8" x="263.71" y="0">A</tspan><tspan class="cls-9" x="312.65" y="0">R</tspan><tspan class="cls-8" x="360.04" y="0">TNER</tspan></text><text class="cls-10" transform="translate(834.58 581.32)">IN SEARCH</text><path class="cls-11" d="M784.35,588.7l24.72-20.11L740.63,484.5a118.55,118.55,0,1,0-62.43,35,8.87,8.87,0,1,0-.73-4.51,8.53,8.53,0,0,0,0,1.75,115.73,115.73,0,1,1,60.24-33.33l-.87.91,68.22,83.83-20.3,16.52-86.9-106.78-1.05.6a86.39,86.39,0,1,1,22.15-18l2.14,1.89a89.25,89.25,0,1,0-23.93,19.2Z"/><path class="cls-4" d="M643.26,442.11a41.36,41.36,0,1,0-24.62-26.49,23.59,23.59,0,0,0-15.88,7.3,58.83,58.83,0,1,1,32,34.56A23.52,23.52,0,0,0,643.26,442.11Z"/><circle class="cls-11" cx="619.84" cy="439.18" r="12.17"/></svg>