<svg id="Layer_1" data-name="Layer 1" xmlns="http://www.w3.org/2000/svg" xmlns:xlink="http://www.w3.org/1999/xlink" viewBox="0 0 1080 505.41"><defs><style>.cls-1{font-size:186.82px;}.cls-1,.cls-10,.cls-5{fill:#fff;}.cls-1,.cls-5{font-family:Montserrat-SemiBold, Montserrat;font-weight:600;}.cls-2{letter-spacing:-0.01em;}.cls-3{letter-spacing:0em;}.cls-4{fill:#99dbf9;}.cls-5{font-size:30.39px;letter-spacing:0.11em;}.cls-6{letter-spacing:0.14em;}.cls-7{letter-spacing:0.1em;}.cls-8{letter-spacing:0.14em;}.cls-9{letter-spacing:0.13em;}.cls-11{fill:url(#linear-gradient);}</style><linearGradient id="linear-gradient" x1="578.57" y1="109.59" x2="581.35" y2="-27.06" gradientTransform="matrix(-0.1, 0.99, 0.99, 0.1, 590.48, -274.32)" gradientUnits="userSpaceOnUse"><stop offset="0" stop-color="#7cd3f7"/><stop offset="1" stop-color="#99dbf9"/></linearGradient></defs><text class="cls-1" transform="translate(93.88 187.08)"><tspan class="cls-2">P</tspan><tspan class="cls-3" x="133.76" y="0">L</tspan><tspan x="245.85" y="0">AN MY</tspan></text><path class="cls-4" d="M107,385.93V224.54h86.24q33.42,0,49.34,11.87t15.9,30.32a36.7,36.7,0,0,1-6.8,21.79q-6.8,9.57-19.71,15.1t-31.82,5.54l4.61-12.46q18.91,0,32.63,5.31t21.21,15.33q7.49,10,7.49,24.09,0,21-17.4,32.74t-50.84,11.76Zm53.5-38h32.74q9,0,13.48-3.23t4.5-9.45q0-6.22-4.5-9.45t-13.48-3.23H156.83v-36h29q9.21,0,13.49-3.11a10.34,10.34,0,0,0,4.26-8.88q0-6-4.26-9t-13.49-3H160.52Z"/><path class="cls-4" d="M370.1,389.62a104,104,0,0,1-36.55-6.22,85.57,85.57,0,0,1-28.93-17.64,81.1,81.1,0,0,1-19-26.86,87,87,0,0,1,0-67.44,81.48,81.48,0,0,1,19-26.75,85.73,85.73,0,0,1,28.93-17.64,109.47,109.47,0,0,1,72.75,0,86.12,86.12,0,0,1,28.82,17.64,81.6,81.6,0,0,1,19,26.75,87,87,0,0,1,0,67.44,81.21,81.21,0,0,1-19,26.86A86,86,0,0,1,406.3,383.4,102.35,102.35,0,0,1,370.1,389.62Zm-.23-44a36.28,36.28,0,0,0,14.18-2.76,34.08,34.08,0,0,0,11.52-8,36.16,36.16,0,0,0,7.73-12.68,53.4,53.4,0,0,0,0-33.89,36.34,36.34,0,0,0-7.73-12.68,34.08,34.08,0,0,0-11.52-8,37.81,37.81,0,0,0-28.36,0,34.12,34.12,0,0,0-11.53,8,36.34,36.34,0,0,0-7.73,12.68,53.4,53.4,0,0,0,0,33.89,36.16,36.16,0,0,0,7.73,12.68,34.12,34.12,0,0,0,11.53,8A36.21,36.21,0,0,0,369.87,345.58Z"/><path class="cls-4" d="M709,385.93V266.73H661.76V224.54H810.7v42.19H763.44v119.2Z"/><path class="cls-4" d="M879.18,385.93H824.76V224.54h54.42Zm54-59.48H875.49V281.72h57.64Zm-3.69-101.91h54.41V385.93H929.44Z"/><text class="cls-5" transform="translate(106.75 442.93)">Y<tspan class="cls-6" x="23.49" y="0">OUR </tspan><tspan class="cls-7" x="120.93" y="0">P</tspan><tspan class="cls-8" x="145.94" y="0">A</tspan><tspan class="cls-9" x="173.02" y="0">R</tspan><tspan class="cls-6" x="199.25" y="0">TNER IN SEARCH</tspan></text><path class="cls-10" d="M668.13,451.6l19.36-15.75L633.91,370A92.82,92.82,0,1,0,585,397.44a6.82,6.82,0,1,0-.57-2.16,90.6,90.6,0,1,1,47.17-26.09l-.68.71,53.41,65.63-15.89,12.93-68-83.6-.82.47a67.62,67.62,0,1,1,17.34-14.11l1.67,1.48a69.86,69.86,0,1,0-18.73,15Z"/><path class="cls-11" d="M557.67,336.83a32.4,32.4,0,1,0-19.27-20.74A18.47,18.47,0,0,0,526,321.8a46,46,0,1,1,25,27.07A18.44,18.44,0,0,0,557.67,336.83Z"/><circle class="cls-10" cx="539.34" cy="334.54" r="9.53"/></svg>