<svg id="Layer_1" data-name="Layer 1" xmlns="http://www.w3.org/2000/svg" viewBox="0 0 1249.06 643.88"><defs><style>.cls-1{fill:#dafffb;}.cls-2{fill:#06fff8;}.cls-3{fill:#fff;}</style></defs><path class="cls-1" d="M73.29,250.83V83.8H142q22.18,0,38.06,7.16t24.46,20.52q8.58,13.36,8.59,31.73T204.54,175q-8.59,13.37-24.46,20.52T142,202.63H90.48l13.84-14.56v62.76Zm31-59.42-13.84-15h50.11q20.52,0,30.9-8.71t10.38-24.46q0-16-10.38-24.57t-30.9-8.59H90.48l13.84-15.28Z"/><path class="cls-1" d="M244.15,250.83V83.8h31V224.58h87.34v26.25Z"/><path class="cls-1" d="M363.7,250.83l75.16-167h30.55l75.4,167H512.36L447.69,100.26H460.1L395.67,250.83Zm34.6-38.66,8.35-24.33h90.2l8.35,24.33Z"/><path class="cls-1" d="M566.05,250.83V83.8h25.53L696.33,212.41H683.69V83.8h30.78v167H688.94L584.18,122.21h12.65V250.83Z"/><path class="cls-1" d="M825.19,250.83V83.8h25.53l73,121.93H910.37L982.2,83.8h25.53l.24,167H978.62l-.24-121h6.2L923.5,231.74H909.66l-62-101.89h7.15v121Z"/><path class="cls-1" d="M1094.11,250.83v-66.1l6.92,19.09-72.54-120h33.17l58.22,96.64h-18.61L1160,83.8h30.54l-72.54,120,7.16-19.09v66.1Z"/><path class="cls-2" d="M67.65,504.83V298.68H177.79q42.71,0,63,15.17t20.32,38.72a46.88,46.88,0,0,1-8.69,27.84q-8.7,12.21-25.18,19.29t-40.64,7.06l5.89-15.9q24.14,0,41.67,6.77t27.09,19.59Q270.85,430,270.85,448q0,26.81-22.23,41.82t-64.94,15ZM136,456.24h41.82q11.49,0,17.23-4.12T200.76,440q0-7.95-5.74-12.07t-17.23-4.13H131.26V377.9h37.11q11.77,0,17.23-4T191,362.59q0-7.65-5.44-11.49t-17.23-3.83H136Z"/><path class="cls-2" d="M403.67,509.54a132.79,132.79,0,0,1-46.68-8,109.43,109.43,0,0,1-37-22.53,103.52,103.52,0,0,1-24.29-34.31,105.33,105.33,0,0,1-8.69-43q0-23.56,8.69-43.15A104,104,0,0,1,320,324.45a109.43,109.43,0,0,1,37-22.53A132,132,0,0,1,403.38,294q25.32,0,46.53,7.95a109.74,109.74,0,0,1,36.81,22.53A104.22,104.22,0,0,1,511,358.61a111.2,111.2,0,0,1,0,86.14,103.69,103.69,0,0,1-24.3,34.31,109.74,109.74,0,0,1-36.81,22.53A130.72,130.72,0,0,1,403.67,509.54Zm-.29-56.25a46.12,46.12,0,0,0,18.11-3.53,43.57,43.57,0,0,0,14.72-10.16,46.44,46.44,0,0,0,9.87-16.2,68.13,68.13,0,0,0,0-43.29,46.44,46.44,0,0,0-9.87-16.2,43.72,43.72,0,0,0-14.72-10.16,48.25,48.25,0,0,0-36.23,0,43.72,43.72,0,0,0-14.72,10.16,46.44,46.44,0,0,0-9.87,16.2,68.13,68.13,0,0,0,0,43.29,46.44,46.44,0,0,0,9.87,16.2,43.57,43.57,0,0,0,14.72,10.16A46.17,46.17,0,0,0,403.38,453.29Z"/><path class="cls-2" d="M836.58,504.83V352.57H776.21V298.68H966.45v53.89H906.08V504.83Z"/><path class="cls-2" d="M1053.92,504.83H984.41V298.68h69.51Zm68.91-76H1049.2V371.72h73.63Zm-4.71-130.17h69.5V504.83h-69.5Z"/><path class="cls-1" d="M82.05,581.32V566.11l1.59,4.39L67,542.88h7.63L88,565.12H83.7l13.5-22.24h7L87.54,570.5l1.65-4.39v15.21Z"/><path class="cls-1" d="M133.07,581.87a22.56,22.56,0,0,1-8.3-1.48,20.11,20.11,0,0,1-6.59-4.15,18.6,18.6,0,0,1-4.33-6.26,20.93,20.93,0,0,1,0-15.76,18.7,18.7,0,0,1,4.33-6.26,20.11,20.11,0,0,1,6.59-4.15,23.76,23.76,0,0,1,16.51,0,20.18,20.18,0,0,1,6.56,4.15,18.73,18.73,0,0,1,4.34,6.26,21,21,0,0,1,0,15.79,18.34,18.34,0,0,1-4.34,6.26,20.45,20.45,0,0,1-6.56,4.12A22.19,22.19,0,0,1,133.07,581.87Zm-.06-6.26a14.3,14.3,0,0,0,5.38-1,12.39,12.39,0,0,0,4.29-2.83,13.26,13.26,0,0,0,2.83-4.28,15,15,0,0,0,0-10.82,13.37,13.37,0,0,0-2.83-4.28,12.39,12.39,0,0,0-4.29-2.83,14.3,14.3,0,0,0-5.38-1,14.08,14.08,0,0,0-5.35,1,12.78,12.78,0,0,0-4.29,2.83,13.26,13.26,0,0,0-2.85,4.28,14.78,14.78,0,0,0,0,10.79,13.18,13.18,0,0,0,2.83,4.31,12.26,12.26,0,0,0,4.28,2.83A14.34,14.34,0,0,0,133,575.61Z"/><path class="cls-1" d="M185.62,581.87q-7.91,0-12.38-4.45t-4.48-12.85V542.88h7.14V564.3c0,4,.85,6.83,2.56,8.62a9.49,9.49,0,0,0,7.22,2.69q4.66,0,7.19-2.69c1.69-1.79,2.53-4.67,2.53-8.62V542.88h7v21.69q0,8.4-4.48,12.85T185.62,581.87Z"/><path class="cls-1" d="M220.22,581.32V542.88H236a21.2,21.2,0,0,1,8.76,1.65,12.75,12.75,0,0,1,5.63,4.72,13.28,13.28,0,0,1,2,7.3,13.14,13.14,0,0,1-2,7.28,12.65,12.65,0,0,1-5.63,4.67,21.54,21.54,0,0,1-8.76,1.62H224.17l3.19-3.24v14.44Zm7.14-13.67-3.19-3.41h11.54c3.15,0,5.52-.67,7.11-2a7,7,0,0,0,2.39-5.66,6.93,6.93,0,0,0-2.39-5.65q-2.38-2-7.11-2H224.17l3.19-3.51Zm18,13.67-9.72-14h7.64l9.77,14Z"/><path class="cls-1" d="M291.12,581.32V542.88h15.82a21.2,21.2,0,0,1,8.76,1.65,12.67,12.67,0,0,1,5.62,4.72,14.47,14.47,0,0,1,0,14.61,12.67,12.67,0,0,1-5.62,4.72,21.2,21.2,0,0,1-8.76,1.65H295.07l3.19-3.35v14.44Zm7.14-13.67-3.19-3.46h11.54q4.71,0,7.11-2a7.85,7.85,0,0,0,0-11.28q-2.4-2-7.11-2H295.07l3.19-3.51Z"/><path class="cls-1" d="M330.88,581.32l17.3-38.44h7l17.35,38.44h-7.47l-14.88-34.65h2.86l-14.83,34.65Zm8-8.89,1.93-5.61h20.75l1.93,5.61Z"/><path class="cls-1" d="M385.25,581.32V542.88h15.82a21.12,21.12,0,0,1,8.75,1.65,12.64,12.64,0,0,1,5.63,4.72,13.2,13.2,0,0,1,2,7.3,13.07,13.07,0,0,1-2,7.28,12.54,12.54,0,0,1-5.63,4.67,21.46,21.46,0,0,1-8.75,1.62H389.2l3.19-3.24v14.44Zm7.14-13.67-3.19-3.41h11.54c3.14,0,5.51-.67,7.11-2a7,7,0,0,0,2.39-5.66,6.93,6.93,0,0,0-2.39-5.65q-2.4-2-7.11-2H389.2l3.19-3.51Zm18,13.67-9.72-14h7.63l9.78,14Z"/><path class="cls-1" d="M440.44,581.32v-32.4H427.7v-6h32.62v6H447.58v32.4Z"/><path class="cls-1" d="M473.5,581.32V542.88h5.88l24.11,29.6h-2.91v-29.6h7.08v38.44h-5.88l-24.1-29.6h2.91v29.6Z"/><path class="cls-1" d="M532.92,575.34h21.7v6H525.78V542.88h28.07v6H532.92Zm-.55-16.48h19.12v5.88H532.37Z"/><path class="cls-1" d="M570.38,581.32V542.88h15.81a21.13,21.13,0,0,1,8.76,1.65,12.69,12.69,0,0,1,5.63,4.72,13.2,13.2,0,0,1,2,7.3,13.07,13.07,0,0,1-2,7.28A12.6,12.6,0,0,1,595,568.5a21.48,21.48,0,0,1-8.76,1.62H574.33l3.19-3.24v14.44Zm7.14-13.67-3.19-3.41h11.53c3.15,0,5.52-.67,7.12-2a7,7,0,0,0,2.39-5.66A6.93,6.93,0,0,0,593,550.9q-2.4-2-7.12-2H574.33l3.19-3.51Zm18,13.67-9.72-14h7.63l9.78,14Z"/><path class="cls-1" d="M839.75,581.32V542.88h7.14v38.44Z"/><path class="cls-1" d="M862.76,581.32V542.88h5.87l24.11,29.6h-2.91v-29.6h7.08v38.44H891l-24.11-29.6h2.91v29.6Z"/><path class="cls-1" d="M945.3,581.87a28.71,28.71,0,0,1-8.63-1.29,18.91,18.91,0,0,1-6.53-3.32l2.47-5.55a19.84,19.84,0,0,0,5.71,3,20.63,20.63,0,0,0,7,1.21,15,15,0,0,0,4.89-.66,5.87,5.87,0,0,0,2.74-1.78,4,4,0,0,0,.88-2.56,3.54,3.54,0,0,0-1.26-2.83,9.42,9.42,0,0,0-3.27-1.7c-1.34-.42-2.82-.81-4.45-1.18s-3.26-.79-4.89-1.29a20.12,20.12,0,0,1-4.45-1.92,9.66,9.66,0,0,1-3.26-3.16,9.16,9.16,0,0,1-1.27-5.05,10.38,10.38,0,0,1,1.68-5.74,11.47,11.47,0,0,1,5.11-4.17,20.89,20.89,0,0,1,8.7-1.57,27.26,27.26,0,0,1,6.87.88,20.1,20.1,0,0,1,5.93,2.53L957,551.28a21.52,21.52,0,0,0-5.32-2.28,20.4,20.4,0,0,0-5.27-.74,13.43,13.43,0,0,0-4.81.72,5.81,5.81,0,0,0-2.69,1.86,4.32,4.32,0,0,0-.85,2.64,3.58,3.58,0,0,0,1.23,2.83,8.84,8.84,0,0,0,3.24,1.67c1.34.41,2.83.8,4.48,1.18s3.28.82,4.91,1.29a20.31,20.31,0,0,1,4.45,1.87,9.08,9.08,0,0,1,3.24,3.13,9.24,9.24,0,0,1,1.24,5,10.28,10.28,0,0,1-1.68,5.68,11.5,11.5,0,0,1-5.13,4.18A21.31,21.31,0,0,1,945.3,581.87Z"/><path class="cls-1" d="M980.55,575.34h21.7v6H973.41V542.88h28.07v6H980.55ZM980,558.86h19.11v5.88H980Z"/><path class="cls-1" d="M1010.27,581.32l17.29-38.44h7L1052,581.32h-7.47l-14.88-34.65h2.85l-14.83,34.65Zm8-8.89,1.92-5.61h20.76l1.92,5.61Z"/><path class="cls-1" d="M1062.33,581.32V542.88h15.81a21.13,21.13,0,0,1,8.76,1.65,12.64,12.64,0,0,1,5.63,4.72,13.2,13.2,0,0,1,2,7.3,13.07,13.07,0,0,1-2,7.28,12.54,12.54,0,0,1-5.63,4.67,21.48,21.48,0,0,1-8.76,1.62h-11.86l3.19-3.24v14.44Zm7.14-13.67-3.19-3.41h11.54c3.14,0,5.51-.67,7.11-2a7,7,0,0,0,2.39-5.66,6.93,6.93,0,0,0-2.39-5.65q-2.4-2-7.11-2h-11.54l3.19-3.51Zm18,13.67-9.72-14h7.63l9.78,14Z"/><path class="cls-1" d="M1125.76,581.87a22.44,22.44,0,0,1-8.16-1.45,19.41,19.41,0,0,1-6.53-4.12,18.72,18.72,0,0,1-4.31-6.29,21.08,21.08,0,0,1,0-15.82,18.72,18.72,0,0,1,4.33-6.29,19.93,19.93,0,0,1,6.54-4.11,23.7,23.7,0,0,1,16.8.16,17.09,17.09,0,0,1,6.6,4.81l-4.62,4.34a13.53,13.53,0,0,0-10.27-4.51,14.89,14.89,0,0,0-5.52,1,12.65,12.65,0,0,0-7.19,7.08,15,15,0,0,0,0,10.88,12.65,12.65,0,0,0,7.19,7.08,14.89,14.89,0,0,0,5.52,1,13.83,13.83,0,0,0,5.6-1.12,13.63,13.63,0,0,0,4.67-3.44l4.62,4.4a17.63,17.63,0,0,1-6.6,4.77A22,22,0,0,1,1125.76,581.87Z"/><path class="cls-1" d="M1160.52,581.32h-7.14V542.88h7.14ZM1181,564.85h-21v-6.1h21Zm-.55-22h7.14v38.44h-7.14Z"/><path class="cls-3" d="M784.35,588.7l24.72-20.11L740.63,484.5a118.55,118.55,0,1,0-62.43,35,8.87,8.87,0,1,0-.73-4.51,8.53,8.53,0,0,0,0,1.75,115.73,115.73,0,1,1,60.24-33.33l-.87.91,68.22,83.83-20.3,16.52-86.9-106.78-1.05.6a86.39,86.39,0,1,1,22.15-18l2.14,1.89a89.25,89.25,0,1,0-23.93,19.2Z"/><path class="cls-2" d="M643.26,442.11a41.36,41.36,0,1,0-24.62-26.49,23.59,23.59,0,0,0-15.88,7.3,58.83,58.83,0,1,1,32,34.56A23.52,23.52,0,0,0,643.26,442.11Z"/><circle class="cls-1" cx="619.84" cy="439.18" r="12.17"/></svg>