<svg id="Layer_1" data-name="Layer 1" xmlns="http://www.w3.org/2000/svg" viewBox="0 0 512 512"><defs><style>.cls-1{fill:#3d94ac;}</style></defs><path class="cls-1" d="M450.55,211.55a10.5,10.5,0,0,0,10.5-10.5v-27a10.5,10.5,0,0,0-10.5-10.5h-19.1v-9.9h19a10.5,10.5,0,0,0,10.5-10.5v-28.6a74.3,74.3,0,0,0-74.2-74.2H125.15A74.3,74.3,0,0,0,51,114.55v28.6a10.5,10.5,0,0,0,10.5,10.5h19v243H62.15a10.53,10.53,0,0,0-10.4,12.1c5.6,35.9,37.1,62.9,73.4,62.9h261.5c36.3,0,67.8-27,73.4-62.9a10.29,10.29,0,0,0-2.4-8.4,10.64,10.64,0,0,0-8-3.7h-18.2V211.55Zm-10.5-21h-101v-6h101Zm-101.4-27v-9.9h71.8v9.9Zm-266.8-30.8v-18.1a53.24,53.24,0,0,1,53.2-53.2h261.5a53.24,53.24,0,0,1,53.2,53.2v18.1H71.85Zm141.8,81a19.46,19.46,0,0,1-19.5-19.5v-40.5h123.5v40.5a19.46,19.46,0,0,1-19.5,19.5Zm48.2,21v9.5h-12v-9.5Zm174,183a53.67,53.67,0,0,1-49.2,33H125.15a53.67,53.67,0,0,1-49.2-33h359.9Zm-244.4-92.6a75.49,75.49,0,0,1,.7-10.6h125.5a74.51,74.51,0,0,1,.7,10.6c0,38.8-28.5,70.3-63.4,70.3S191.45,364,191.45,325.15Zm218.9,71.6H307.25a81.11,81.11,0,0,0,10.8-11.1h19.1a25.86,25.86,0,0,0,25.8-25.8v-30.6a25.86,25.86,0,0,0-25.8-25.8H337c-.1-.6-.3-1.2-.4-1.8a10.57,10.57,0,0,0-10.2-8H183.55a10.57,10.57,0,0,0-10.2,8,98.31,98.31,0,0,0-2.8,23.6c0,29,12.5,54.8,32.1,71.6H101.35v-243h71.8v40.5a40.59,40.59,0,0,0,40.5,40.5h15.2v20a10.5,10.5,0,0,0,10.5,10.5h33a10.5,10.5,0,0,0,10.5-10.5v-20h15.2a40.67,40.67,0,0,0,36.6-23.1h75.7v185Zm-71-71.8a4.85,4.85,0,0,1,2.6,4.2v30.6a4.87,4.87,0,0,1-4.8,4.8h-6.1a97.68,97.68,0,0,0,8.3-39.5Z"/></svg>