<svg id="Layer_1" data-name="Layer 1" xmlns="http://www.w3.org/2000/svg" viewBox="0 0 512 512"><defs><style>.cls-1{fill:#3d94ac;}</style></defs><path class="cls-1" d="M481.25,19.85H30.85a11,11,0,0,0-11,11v450.3a11,11,0,0,0,11,11h450.3a11,11,0,0,0,11-11V30.85A11,11,0,0,0,481.25,19.85Zm-11,22v321.2h-15.2a31.94,31.94,0,0,0,1.6-9.8V252.65a33.62,33.62,0,0,0-10.9-24.7,47.7,47.7,0,1,0-65,0,33.29,33.29,0,0,0-10.9,24.7v68.9h-5.8v-25.9a11,11,0,0,0-11-11h-34.5V283a63.73,63.73,0,0,0-31.3-54.8,47.7,47.7,0,1,0-64.8,0,63.73,63.73,0,0,0-31.3,54.8v1.7h-33.1a11,11,0,0,0-11,11v25.9h-3.8v-68.9a33.62,33.62,0,0,0-10.9-24.7,47.69,47.69,0,0,0-32.5-82.6c-26.3,0-47.3,21.7-47.3,47.9a48,48,0,0,0,15.2,34.9,33.29,33.29,0,0,0-10.9,24.7v100.6a29.19,29.19,0,0,0,1.6,9.8H41.85V41.85ZM434.55,353v.4a9.71,9.71,0,0,1-9.7,9.7h-60.8v-19.3h16.8a11,11,0,0,0,11-11v-79.9a11.39,11.39,0,0,1,11.4-11.4h19.8a11.39,11.39,0,0,1,11.4,11.4v99.3A1.72,1.72,0,0,1,434.55,353Zm-21.3-134a25.7,25.7,0,1,1,25.7-25.7A25.76,25.76,0,0,1,413.25,219Zm-158.2,22.4a41.74,41.74,0,0,1,41.7,41.7v1.7h-83.4v-1.7A41.74,41.74,0,0,1,255.05,241.35Zm-25.7-48.1a25.7,25.7,0,1,1,25.7,25.7A25.76,25.76,0,0,1,229.35,193.25ZM78.85,351.55v-98.8a11.39,11.39,0,0,1,11.4-11.4h19.8a11.39,11.39,0,0,1,11.4,11.4v79.9a11,11,0,0,0,11,11h14.8V363H88.55a9.71,9.71,0,0,1-9.7-9.7v-1.7Zm-4.3-158.3a25.7,25.7,0,1,1,25.7,25.7A25.76,25.76,0,0,1,74.55,193.25Zm-32.2,277v-85.1h115.9a11,11,0,0,0,11-11v-67.3h172.9v67.3a11,11,0,0,0,11,11h117v85.1Z"/></svg>