<svg id="Layer_1" data-name="Layer 1" xmlns="http://www.w3.org/2000/svg" viewBox="0 0 512 512"><defs><style>.cls-1{fill:#3d94ac;}</style></defs><path class="cls-1" d="M484.35,214.05H337.15c.1-2,.2-4,.2-6a81.36,81.36,0,0,0-44.7-72.6,60,60,0,1,0-73.6,0,81.59,81.59,0,0,0-44.7,72.6c0,2,.1,4,.2,6h-147a11,11,0,0,0-11,11V473a11,11,0,0,0,11,11h456.9a11,11,0,0,0,11-11V225.05A11.12,11.12,0,0,0,484.35,214.05ZM256,50.05a38,38,0,1,1-38,38A38,38,0,0,1,256,50.05Zm-59.5,158a59.5,59.5,0,0,1,119,0q0,3-.3,6H196.85A40.32,40.32,0,0,1,196.45,208.05ZM473.35,462H38.55V236.05h434.9V462Z"/></svg>