<svg id="Layer_1" data-name="Layer 1" xmlns="http://www.w3.org/2000/svg" viewBox="0 0 512 512"><defs><style>.cls-1{fill:#3d94ac;}</style></defs><path class="cls-1" d="M228.45,246H102.85L83.55,67.3a11,11,0,0,0-10.9-9.8H34.35a11,11,0,0,0-11,11V312.8a11,11,0,0,0,11,11h11.9L33.85,442.3a11,11,0,0,0,9.8,12.1c.4,0,.8.1,1.2.1a11,11,0,0,0,10.9-9.9l12.7-120.8h126.6l12.7,120.8a11,11,0,0,0,10.9,9.9,4.87,4.87,0,0,0,1.2-.1,11,11,0,0,0,9.8-12.1l-12.5-118.5h11.4a11,11,0,0,0,11-11V257A11.12,11.12,0,0,0,228.45,246Zm-11,55.8H45.35V79.5h17.4l19.3,178.7A11,11,0,0,0,93,268h124.5Z"/><path class="cls-1" d="M477.75,133.9H205.55a11,11,0,0,0-11,11V202a11,11,0,0,0,11,11h125.1V432.5h-56.3a11,11,0,0,0,0,22h134.5a11,11,0,0,0,0-22h-56.3V213h125.1a11,11,0,0,0,11-11V144.9A10.88,10.88,0,0,0,477.75,133.9Zm-11,57.1H216.55V155.9h250.2Z"/></svg>