<svg id="Layer_1" data-name="Layer 1" xmlns="http://www.w3.org/2000/svg" viewBox="0 0 512 512"><defs><style>.cls-1{fill:#3d94ac;}</style></defs><path class="cls-1" d="M449.2,88.6H402V22a11,11,0,0,0-22,0V88.6H132V22a11,11,0,0,0-22,0V88.6H62.8a34.1,34.1,0,0,0-34,34v80.2a34.1,34.1,0,0,0,34,34H449.3a34.1,34.1,0,0,0,34-34V122.6A34.19,34.19,0,0,0,449.2,88.6Zm12,114.3a12,12,0,0,1-12,12H62.8a12,12,0,0,1-12-12V122.7a12,12,0,0,1,12-12H449.3a12,12,0,0,1,12,12v80.2Z"/><path class="cls-1" d="M289.9,412.4a51.7,51.7,0,1,0-67.8,0A69.53,69.53,0,0,0,186.5,473a73.49,73.49,0,0,0,2,16.8,11,11,0,0,0,10.7,8.4H312.7a10.92,10.92,0,0,0,10.7-8.4,67.75,67.75,0,0,0,2-16.8A69.47,69.47,0,0,0,289.9,412.4ZM256,343.8a29.7,29.7,0,1,1-29.7,29.7A29.7,29.7,0,0,1,256,343.8Zm47.4,132.4H208.6c-.1-1-.1-2.1-.1-3.1a47.5,47.5,0,0,1,95,0C303.5,474.1,303.5,475.2,303.4,476.2Z"/></svg>