<svg id="Layer_1" data-name="Layer 1" xmlns="http://www.w3.org/2000/svg" viewBox="0 0 512 512"><defs><style>.cls-1{fill:#3d94ac;}</style></defs><path class="cls-1" d="M452.25,58.7H59.85a34.1,34.1,0,0,0-34,34V343.6a34.1,34.1,0,0,0,34,34H208v53.7h-47.8a11,11,0,0,0,0,22h191.7a11,11,0,0,0,0-22h-47.8V377.6h148.1a34.1,34.1,0,0,0,34-34V92.7A34,34,0,0,0,452.25,58.7ZM282.15,431.3h-52.1V377.6h52.1Zm182.1-87.7a12,12,0,0,1-12,12h-158c-.4,0-.8-.1-1.2-.1H219a4.87,4.87,0,0,0-1.2.1h-158a12,12,0,0,1-12-12V92.7a12,12,0,0,1,12-12h392.4a12,12,0,0,1,12,12V343.6Z"/></svg>