<svg id="Layer_1" data-name="Layer 1" xmlns="http://www.w3.org/2000/svg" viewBox="0 0 512 512"><defs><style>.cls-1{fill:#3d94ac;}</style></defs><path class="cls-1" d="M471.2,151.4a53.2,53.2,0,1,0-69.6,0,36.8,36.8,0,0,0-13.4,28.4v81h-8.9V229.3a11,11,0,0,0-11-11H325.8c.1-1.2.1-2.4.1-3.7a71.77,71.77,0,0,0-37.3-62.9,53.2,53.2,0,1,0-68.8,0,71.77,71.77,0,0,0-37.3,62.9c0,1.2,0,2.4.1,3.7H143.9a11,11,0,0,0-11,11v31.5h-8.8v-81a36.8,36.8,0,0,0-13.4-28.4,53.35,53.35,0,1,0-69.9,0,36.8,36.8,0,0,0-13.4,28.4V295.6A34.56,34.56,0,0,0,31,311a10.83,10.83,0,0,0-4,8.5V443a11,11,0,0,0,11,11H473.6a11,11,0,0,0,11-11V319.6a10.74,10.74,0,0,0-3.7-8.2,34.76,34.76,0,0,0,3.8-15.8V179.8A37.21,37.21,0,0,0,471.2,151.4ZM436.4,80a31.2,31.2,0,1,1-31.2,31.2A31.24,31.24,0,0,1,436.4,80ZM399.1,282.8a11,11,0,0,0,11-11v-92A14.94,14.94,0,0,1,425,164.9h22.8a14.94,14.94,0,0,1,14.9,14.9V295.7a12.76,12.76,0,0,1-12.8,12.8H379.3V282.9h19.8ZM254,80a31.2,31.2,0,1,1-31.2,31.2A31.24,31.24,0,0,1,254,80ZM204.3,214.7a49.7,49.7,0,0,1,99.4,0c0,1.2,0,2.4-.1,3.7H204.4C204.3,217.1,204.3,215.9,204.3,214.7Zm-71.6,68.1v25.6H62.2a12.76,12.76,0,0,1-12.8-12.8V179.8a14.94,14.94,0,0,1,14.9-14.9H87a14.94,14.94,0,0,1,14.9,14.9v92a11,11,0,0,0,11,11ZM75.6,80a31.2,31.2,0,1,1-31.2,31.2A31.24,31.24,0,0,1,75.6,80ZM462.5,432H49V330.6h94.7a11,11,0,0,0,11-11V240.3H357.2v79.3a11,11,0,0,0,11,11h94.3Z"/></svg>